# xmcd
#
# Track frame offsets:
#	150
#	21682
#	38667
#	61132
#	83134
#	108348
#	122348
#	139322
#	162648
#	186945
#	210098
#	232993
#
# Disc length: 3455 seconds
#
# Revision: 1
# Processed by: cddbd v1.5.2PL0 Copyright (c) Steve Scherf et al.
# Submitted via: audiograbber 1.83.01
#
DISCID=9c0d7d0c
DTITLE=Steppin' Out - Home
DYEAR=1900
DGENRE=
TTITLE0=The Whistle
TTITLE1=Catwalk
TTITLE2=Someday the Wrong Man's Gonna Treat You Right
TTITLE3=There's No Good Time for Getting Bad News
TTITLE4=Find Yourself a Home
TTITLE5=Life Song
TTITLE6=Fever
TTITLE7=The Love Inside of Me (Talkin' to an Angel)
TTITLE8=Way Back Home
TTITLE9=I'm Your Man
TTITLE10=A Little Bit More Like You
TTITLE11=Everything Must Change
EXTD=
EXTT0=
EXTT1=
EXTT2=
EXTT3=
EXTT4=
EXTT5=
EXTT6=
EXTT7=
EXTT8=
EXTT9=
EXTT10=
EXTT11=
PLAYORDER=
